<svg version="1.1" id="thy_logo" xmlns="http://www.w3.org/2000/svg" xmlns:xlink="http://www.w3.org/1999/xlink" x="0px" y="0px" viewBox="0 0 100 100" xml:space="preserve">
    <style type="text/css">
        .st0 {
            fill: #FFFFFF;
        }

        .st1 {
            fill: #D0141C;
        }

        .st2 {
            fill: none;
            stroke: #F27171;
            stroke-width: 0.5;
            stroke-miterlimit: 10;
        }
    </style>
    <g>
        <path class="st0" d="M51.5,96.2c-25.9,0-47-21.1-47-47s21.1-47,47-47s47,21.1,47,47S77.4,96.2,51.5,96.2z"></path>
        <path class="st1" d="M51.5,9.2c22.6,0,41,18.4,41,41s-18.4,41-41,41s-41-18.4-41-41S28.9,9.2,51.5,9.2 M51.5,8.7c-23,0-41.7,18.7-41.7,41.7
        s18.7,41.7,41.7,41.7s41.7-18.7,41.7-41.7S74.5,8.7,51.5,8.7L51.5,8.7z"></path>
        <path class="st0" d="M31.1,16.2c0,0,47.4,14.9,26.2,37.6l27.5-2.1c0.3,0,0.5,0.5,0.2,0.7L18.8,72.7c0,0,1.7,2.7,4.3,5.3
        c11.8,11.8,30.9,14.2,45.5,5.8c14.6-8.4,22.3-25.1,19.5-41.9C86.8,22.9,63.6,5.3,37.2,13.1C34.6,13.9,32.1,15,31.1,16.2z"></path>
        <path class="st1" d="M31.1,16.2c0,0,47.4,14.9,26.2,37.6l27.5-2.1c0.3,0,0.5,0.5,0.2,0.7L18.8,72.7c0,0,1.7,2.7,4.3,5.3
        c11.8,11.8,30.9,14.2,45.5,5.8c14.6-8.4,22.3-25.1,19.5-41.9C86.8,22.9,63.6,5.3,37.2,13.1C34.6,13.9,32.1,15,31.1,16.2z"></path>
        <path class="st1" d="M13.2,51.2c0,7.4,1.9,14.3,5.3,20.3c0,0,24.8-3.6,23.5-32.1C40.3,25.4,31.1,16.2,31.1,16.2
        C20.6,23.3,13.2,35.5,13.2,51.2z"></path>
    </g>
</svg> 